G04*
G04 #@! TF.GenerationSoftware,Altium Limited,Altium Designer,21.2.0 (30)*
G04*
G04 Layer_Color=65535*
%FSLAX25Y25*%
%MOIN*%
G70*
G04*
G04 #@! TF.SameCoordinates,50EEE562-DE44-4F6C-8D0E-6D451127BC4F*
G04*
G04*
G04 #@! TF.FilePolarity,Positive*
G04*
G01*
G75*
%ADD10C,0.00787*%
%ADD11C,0.00394*%
%ADD12C,0.01000*%
%ADD13C,0.03937*%
%ADD14C,0.00591*%
D10*
X118220Y96260D02*
G03*
X118220Y96260I-346J0D01*
G01*
X274488Y92953D02*
G03*
X274095Y92953I-197J0D01*
G01*
D02*
G03*
X274488Y92953I197J0D01*
G01*
D02*
G03*
X274095Y92953I-197J0D01*
G01*
X237480Y140075D02*
X241417D01*
X236102Y140252D02*
Y151748D01*
X233347D02*
X236102D01*
X233347Y140252D02*
Y151748D01*
Y140252D02*
X236102D01*
X121098Y172823D02*
X126906D01*
X128284Y151760D02*
Y171445D01*
Y151760D02*
X142850D01*
Y171445D01*
X128284D02*
X142850D01*
X119500Y83500D02*
X136500D01*
Y100500D01*
X119500Y83500D02*
Y100500D01*
X136500D01*
X283937Y86063D02*
Y93937D01*
X276063Y86063D02*
X283937D01*
X276063D02*
Y93937D01*
X283937D01*
X271275Y145369D02*
Y151669D01*
X280724Y145369D02*
Y151669D01*
X271275Y145369D02*
X280724D01*
X271276Y166630D02*
X280724D01*
Y160331D02*
Y166630D01*
X271276Y160331D02*
Y166630D01*
D11*
X227217Y165953D02*
G03*
X227610Y165953I197J0D01*
G01*
D02*
G03*
X227217Y165953I-197J0D01*
G01*
X229579Y158079D02*
X239421D01*
X229579Y167921D02*
X239126D01*
D12*
X276197Y154622D02*
G03*
X276197Y154622I-197J0D01*
G01*
X372284Y89685D02*
Y130236D01*
X382815D01*
Y89685D02*
Y130236D01*
X372284Y89685D02*
X382815D01*
X360159Y96503D02*
X364158Y90505D01*
Y96503D02*
X360159Y90505D01*
X370156Y96503D02*
X366157D01*
Y93504D01*
X368157Y94504D01*
X369156D01*
X370156Y93504D01*
Y91505D01*
X369156Y90505D01*
X367157D01*
X366157Y91505D01*
X235724Y133001D02*
Y136999D01*
X234725Y137999D01*
X232725D01*
X231726Y136999D01*
Y133001D01*
X232725Y132001D01*
X234725D01*
X233725Y134000D02*
X235724Y132001D01*
X234725D02*
X235724Y133001D01*
X237724Y132001D02*
X239723D01*
X238723D01*
Y137999D01*
X237724Y136999D01*
X167199Y180098D02*
X166199Y181098D01*
X164200D01*
X163200Y180098D01*
Y176100D01*
X164200Y175100D01*
X166199D01*
X167199Y176100D01*
X169198Y180098D02*
X170198Y181098D01*
X172197D01*
X173197Y180098D01*
Y179099D01*
X172197Y178099D01*
X173197Y177099D01*
Y176100D01*
X172197Y175100D01*
X170198D01*
X169198Y176100D01*
Y177099D01*
X170198Y178099D01*
X169198Y179099D01*
Y180098D01*
X170198Y178099D02*
X172197D01*
X257001Y140500D02*
X256001Y139501D01*
Y137501D01*
X257001Y136502D01*
X260999D01*
X261999Y137501D01*
Y139501D01*
X260999Y140500D01*
X256001Y142500D02*
Y146498D01*
X257001D01*
X260999Y142500D01*
X261999D01*
X253499Y166001D02*
X247501D01*
Y169000D01*
X248501Y170000D01*
X250500D01*
X251500Y169000D01*
Y166001D01*
Y168001D02*
X253499Y170000D01*
Y171999D02*
Y173999D01*
Y172999D01*
X247501D01*
X248501Y171999D01*
X172502Y84001D02*
Y89999D01*
X175501D01*
X176500Y88999D01*
Y87000D01*
X175501Y86000D01*
X172502D01*
X174501D02*
X176500Y84001D01*
X181499D02*
Y89999D01*
X178500Y87000D01*
X182498D01*
X212999Y148502D02*
X207001D01*
Y151501D01*
X208001Y152500D01*
X210000D01*
X211000Y151501D01*
Y148502D01*
Y150501D02*
X212999Y152500D01*
X208001Y154500D02*
X207001Y155499D01*
Y157499D01*
X208001Y158498D01*
X209000D01*
X210000Y157499D01*
Y156499D01*
Y157499D01*
X211000Y158498D01*
X211999D01*
X212999Y157499D01*
Y155499D01*
X211999Y154500D01*
X269499Y165974D02*
X263501D01*
Y168973D01*
X264501Y169973D01*
X266500D01*
X267500Y168973D01*
Y165974D01*
Y167973D02*
X269499Y169973D01*
Y175971D02*
Y171972D01*
X265500Y175971D01*
X264501D01*
X263501Y174971D01*
Y172972D01*
X264501Y171972D01*
X278999Y136001D02*
X273001D01*
Y139000D01*
X274001Y140000D01*
X276000D01*
X277000Y139000D01*
Y136001D01*
X278999Y141999D02*
Y143999D01*
Y142999D01*
X273001D01*
X274001Y141999D01*
X108002Y89499D02*
Y83501D01*
Y85500D01*
X112000Y89499D01*
X109001Y86500D01*
X112000Y83501D01*
X117998Y89499D02*
X114000D01*
Y86500D01*
X115999Y87500D01*
X116999D01*
X117998Y86500D01*
Y84501D01*
X116999Y83501D01*
X114999D01*
X114000Y84501D01*
X229502Y175999D02*
Y170001D01*
Y172000D01*
X233500Y175999D01*
X230501Y173000D01*
X233500Y170001D01*
X235500Y174999D02*
X236499Y175999D01*
X238499D01*
X239498Y174999D01*
Y174000D01*
X238499Y173000D01*
X237499D01*
X238499D01*
X239498Y172000D01*
Y171001D01*
X238499Y170001D01*
X236499D01*
X235500Y171001D01*
X121700Y182198D02*
Y176200D01*
Y178199D01*
X125699Y182198D01*
X122700Y179199D01*
X125699Y176200D01*
X131697D02*
X127698D01*
X131697Y180199D01*
Y181198D01*
X130697Y182198D01*
X128698D01*
X127698Y181198D01*
X276001Y100999D02*
Y95001D01*
Y97000D01*
X280000Y100999D01*
X277001Y98000D01*
X280000Y95001D01*
X281999D02*
X283999D01*
X282999D01*
Y100999D01*
X281999Y99999D01*
X311001Y36999D02*
X310002Y37999D01*
X308002D01*
X307003Y36999D01*
Y33001D01*
X308002Y32001D01*
X310002D01*
X311001Y33001D01*
X316999Y36999D02*
X316000Y37999D01*
X314000D01*
X313001Y36999D01*
Y36000D01*
X314000Y35000D01*
X316000D01*
X316999Y34000D01*
Y33001D01*
X316000Y32001D01*
X314000D01*
X313001Y33001D01*
X321998Y32001D02*
Y37999D01*
X318999Y35000D01*
X322997D01*
X243501Y36999D02*
X242502Y37999D01*
X240502D01*
X239503Y36999D01*
Y33001D01*
X240502Y32001D01*
X242502D01*
X243501Y33001D01*
X249499Y36999D02*
X248500Y37999D01*
X246500D01*
X245501Y36999D01*
Y36000D01*
X246500Y35000D01*
X248500D01*
X249499Y34000D01*
Y33001D01*
X248500Y32001D01*
X246500D01*
X245501Y33001D01*
X251499Y36999D02*
X252498Y37999D01*
X254498D01*
X255497Y36999D01*
Y36000D01*
X254498Y35000D01*
X253498D01*
X254498D01*
X255497Y34000D01*
Y33001D01*
X254498Y32001D01*
X252498D01*
X251499Y33001D01*
X176119Y36448D02*
X175120Y37448D01*
X173120D01*
X172121Y36448D01*
Y32449D01*
X173120Y31450D01*
X175120D01*
X176119Y32449D01*
X182117Y36448D02*
X181118Y37448D01*
X179118D01*
X178119Y36448D01*
Y35449D01*
X179118Y34449D01*
X181118D01*
X182117Y33449D01*
Y32449D01*
X181118Y31450D01*
X179118D01*
X178119Y32449D01*
X188116Y31450D02*
X184117D01*
X188116Y35449D01*
Y36448D01*
X187116Y37448D01*
X185117D01*
X184117Y36448D01*
X109501Y36999D02*
X108501Y37999D01*
X106502D01*
X105502Y36999D01*
Y33001D01*
X106502Y32001D01*
X108501D01*
X109501Y33001D01*
X115499Y36999D02*
X114499Y37999D01*
X112500D01*
X111500Y36999D01*
Y36000D01*
X112500Y35000D01*
X114499D01*
X115499Y34000D01*
Y33001D01*
X114499Y32001D01*
X112500D01*
X111500Y33001D01*
X117498Y32001D02*
X119498D01*
X118498D01*
Y37999D01*
X117498Y36999D01*
X131001Y128000D02*
X130001Y127001D01*
Y125001D01*
X131001Y124002D01*
X134999D01*
X135999Y125001D01*
Y127001D01*
X134999Y128000D01*
X130001Y133998D02*
X131001Y131999D01*
X133000Y130000D01*
X134999D01*
X135999Y130999D01*
Y132999D01*
X134999Y133998D01*
X134000D01*
X133000Y132999D01*
Y130000D01*
X120501Y128000D02*
X119501Y127001D01*
Y125001D01*
X120501Y124002D01*
X124499D01*
X125499Y125001D01*
Y127001D01*
X124499Y128000D01*
X119501Y133998D02*
Y130000D01*
X122500D01*
X121500Y131999D01*
Y132999D01*
X122500Y133998D01*
X124499D01*
X125499Y132999D01*
Y130999D01*
X124499Y130000D01*
X154000Y106499D02*
X153001Y107499D01*
X151001D01*
X150002Y106499D01*
Y102501D01*
X151001Y101501D01*
X153001D01*
X154000Y102501D01*
X158999Y101501D02*
Y107499D01*
X156000Y104500D01*
X159998D01*
X153500Y80999D02*
X152501Y81999D01*
X150501D01*
X149502Y80999D01*
Y77001D01*
X150501Y76001D01*
X152501D01*
X153500Y77001D01*
X155500Y80999D02*
X156499Y81999D01*
X158499D01*
X159498Y80999D01*
Y80000D01*
X158499Y79000D01*
X157499D01*
X158499D01*
X159498Y78000D01*
Y77001D01*
X158499Y76001D01*
X156499D01*
X155500Y77001D01*
X303500Y99999D02*
X302501Y100999D01*
X300501D01*
X299502Y99999D01*
Y96001D01*
X300501Y95001D01*
X302501D01*
X303500Y96001D01*
X309498Y95001D02*
X305500D01*
X309498Y99000D01*
Y99999D01*
X308499Y100999D01*
X306499D01*
X305500Y99999D01*
X253500D02*
X252500Y100999D01*
X250501D01*
X249501Y99999D01*
Y96001D01*
X250501Y95001D01*
X252500D01*
X253500Y96001D01*
X255499Y95001D02*
X257499D01*
X256499D01*
Y100999D01*
X255499Y99999D01*
D13*
X88878Y58622D02*
X136122D01*
Y11378D02*
Y58622D01*
X88878Y11378D02*
X136122D01*
X88878D02*
Y58622D01*
X156378Y11378D02*
Y58622D01*
Y11378D02*
X203622D01*
Y58622D01*
X156378D02*
X203622D01*
X223878D02*
X271122D01*
Y11378D02*
Y58622D01*
X223878Y11378D02*
X271122D01*
X223878D02*
Y58622D01*
X291378Y11378D02*
Y58622D01*
Y11378D02*
X338622D01*
Y58622D01*
X291378D02*
X338622D01*
D14*
X162457Y167831D02*
Y171768D01*
X169543Y167831D02*
Y171768D01*
X162457D02*
X169543D01*
X162457Y155232D02*
X169543D01*
X162457D02*
Y159169D01*
X169543Y155232D02*
Y159169D01*
X254957Y160331D02*
Y164268D01*
X262043Y160331D02*
Y164268D01*
X254957D02*
X262043D01*
X254957Y147732D02*
X262043D01*
X254957D02*
Y151669D01*
X262043Y147732D02*
Y151669D01*
X246956Y160331D02*
Y164268D01*
X254043Y160331D02*
Y164268D01*
X246956D02*
X254043D01*
X246956Y147732D02*
X254043D01*
X246956D02*
Y151669D01*
X254043Y147732D02*
Y151669D01*
X136543Y106260D02*
Y110197D01*
X129457Y106260D02*
Y110197D01*
Y106260D02*
X136543D01*
X129457Y122795D02*
X136543D01*
Y118858D02*
Y122795D01*
X129457Y118858D02*
Y122795D01*
X126043Y106260D02*
Y110197D01*
X118957Y106260D02*
Y110197D01*
Y106260D02*
X126043D01*
X118957Y122795D02*
X126043D01*
Y118858D02*
Y122795D01*
X118957Y118858D02*
Y122795D01*
X170543Y83732D02*
Y87669D01*
X163456Y83732D02*
Y87669D01*
Y83732D02*
X170543D01*
X163456Y100268D02*
X170543D01*
Y96331D02*
Y100268D01*
X163456Y96331D02*
Y100268D01*
X142732Y93457D02*
X146669D01*
X142732Y100543D02*
X146669D01*
X142732Y93457D02*
Y100543D01*
X159268Y93457D02*
Y100543D01*
X155331Y93457D02*
X159268D01*
X155331Y100543D02*
X159268D01*
X293732Y86457D02*
X297669D01*
X293732Y93543D02*
X297669D01*
X293732Y86457D02*
Y93543D01*
X310268Y86457D02*
Y93543D01*
X306331Y86457D02*
X310268D01*
X306331Y93543D02*
X310268D01*
X249732Y86457D02*
X253669D01*
X249732Y93543D02*
X253669D01*
X249732Y86457D02*
Y93543D01*
X266268Y86457D02*
Y93543D01*
X262331Y86457D02*
X266268D01*
X262331Y93543D02*
X266268D01*
X142732Y83457D02*
X146669D01*
X142732Y90543D02*
X146669D01*
X142732Y83457D02*
Y90543D01*
X159268Y83457D02*
Y90543D01*
X155331Y83457D02*
X159268D01*
X155331Y90543D02*
X159268D01*
X221543Y147732D02*
Y151669D01*
X214456Y147732D02*
Y151669D01*
Y147732D02*
X221543D01*
X214456Y164268D02*
X221543D01*
Y160331D02*
Y164268D01*
X214456Y160331D02*
Y164268D01*
X270043Y147705D02*
Y151642D01*
X262956Y147705D02*
Y151642D01*
Y147705D02*
X270043D01*
X262956Y164240D02*
X270043D01*
Y160303D02*
Y164240D01*
X262956Y160303D02*
Y164240D01*
M02*
