M48
;Layer_Color=9474304
;FILE_FORMAT=2:5
INCH,LZ
;TYPE=PLATED
T1F00S00C0.01181
T2F00S00C0.03937
T3F00S00C0.04331
%
T01
X0011Y0011
X0022
X0033
X0044
X0055
X0066
X0077
X00725Y00175
X00775Y00225
X008Y0025
X0077Y0055
Y0066
Y0077
X0088
X0099
X011
X0121
X012661Y007711
X0129314Y0079686
X0132Y0077
X0143
X0154
Y011
Y0121
Y0132
Y0143
Y01525
X01355Y0154
X0132Y0143
X0143
Y0132
Y0121
Y011
X0116
X0121Y0099
X0112212Y00935
X0109221Y009072
X0099Y0088
X0088
Y0099
X0077
Y011
X0099
Y0121
Y0132
Y0143
Y0154
X0088
Y0143
Y0132
Y0121
X0077Y0132
Y0143
Y0154
X0066
Y0143
X0055
X0044Y0154
X0033
Y0143
X0022
Y0154
X0011
Y0143
Y0132
Y0121
Y011
Y0099
Y0088
Y0077
X0044
X0055
Y0088
X0044
Y0099
Y011
Y0121
Y0132
Y0066
X0055
X0066
X0055Y0055
X0044
Y0044
X0033Y0066
X0077Y0088
X01125Y00665
X0121Y0132
X0132
X0121Y0143
X01475Y00225
X0165Y0077
X0176
X0187
X0198
X0209
X022
X0231
X0242
X0253
X0264
X02695Y0081
X0276Y00785
X0286Y0077
X0297
X0308
Y0099
Y011
Y0121
X0297
Y0132
X0286
Y0143
X0275
Y0132
X0286Y0121
X0297Y011
X02985Y0096
X0286Y0099
X02865Y009
X02725Y00935
X0275Y0099
X0279Y0106
X0264Y011
X026254Y009954
X02625Y0096
X0242Y0099
Y0088
X0231
Y0099
Y011
X022
Y0121
X0209
Y0132
X0198
Y0143
X0187
Y0132
Y0121
X0198
Y011
X0209
Y0099
X022
Y0088
X0209
X0198
Y0099
X0187
Y011
X0176
Y0121
Y0132
Y0143
X0165
Y0132
Y0121
Y011
X0176Y0099
Y0088
X0187
X018Y0069
X02475Y00665
X0253Y0121
X0242Y0132
X0247Y0146
X0242Y0154
X023Y0155
X022Y0143
X0209Y0154
X0157Y0155
X0264Y0143
X0308
X0297Y0154
X02825Y0025
X0215Y00175
X0352Y0022
X0363
X0374
X0385
X0396
X0407
X0418
X0429
X044
Y0033
Y0044
Y0055
Y0066
Y0077
Y0088
Y0099
Y011
Y0121
Y0132
Y0143
Y0154
X0429
Y0143
Y0132
Y0121
Y011
Y0099
Y0088
Y0077
Y0066
Y0055
Y0044
Y0033
X0418
Y0044
Y0055
Y0066
Y0077
Y0088
Y0099
Y011
Y0121
Y0132
Y0143
Y0154
X0407
Y0143
Y0132
Y0121
Y011
Y0099
Y0088
Y0077
Y0066
Y0055
Y0044
Y0033
X0396
Y0044
Y0055
Y0066
Y0077
Y0088
Y0099
Y011
Y0121
Y0132
Y0143
Y0154
X0385
Y0143
Y0132
Y0121
Y011
Y0099
Y0088
Y0077
Y0066
Y0055
Y0044
Y0033
X0374
Y0044
Y0055
Y0066
Y0077
Y0088
X0363
Y0099
Y011
X0374
Y0132
Y0143
Y0154
X0363
Y0143
Y0132
Y0121
X0352
Y0132
Y0143
Y0154
X0341
Y0143
Y0132
Y011
X0352
Y0099
Y0088
Y0077
X0363
Y0066
Y0055
Y0044
Y0033
X0352
Y0044
Y0055
Y0066
X0341Y0077
Y0088
X033
Y0099
X0319
Y011
X033Y0121
Y0143
Y0154
X0319
Y0132
Y0088
Y0077
X0315Y00715
X033Y0077
X0352Y0011
X0418
X0429
X044
Y0165
Y0176
Y0187
Y0198
X0429
Y0187
Y0176
Y0165
X0418
Y0176
Y0187
Y0198
X0407
Y0187
Y0176
Y0165
X0396
Y0176
Y0187
Y0198
X0385
Y0187
Y0176
Y0165
X0374
Y0176
Y0187
Y0198
X0363
Y0187
Y0176
Y0165
X0352
Y0176
Y0187
Y0198
X0341
Y0187
Y0176
Y0165
X033
Y0176
Y0187
Y0198
X0319Y0187
Y0176
Y0165
X0308
Y0176
Y0187
X0297
Y0176
X0286Y0187
X0275
Y0176
X02665Y0166
X0286Y0165
X0264Y0187
X02475Y01775
X02445Y0161903
X0225Y0166
X022Y0165
X0209
X0212502Y0160998
X0217Y0174
X022Y0187
X0231
X022Y0198
X0209
Y0187
X0198
Y0198
X0187
Y0187
X0176
Y0198
X0165
Y0187
X0176Y0165
X0187
X0198
X0154
X01355Y01645
Y0161
Y01575
Y0168
X0132Y0165
Y0187
X0143
X0154
Y0198
X0143
X0132
X0121
Y0187
X011
Y0198
X0099
Y0187
X0088
Y0198
X0077
Y0187
X0066
Y0198
X0055
Y0187
Y0176
X0066
X0077Y0165
X0088
X0099
X0109Y0168
X0112186Y0170569
X0055Y0165
X0044
Y0176
Y0187
Y0198
X0033
Y0187
Y0176
Y0165
X0022
Y0176
Y0187
Y0198
X0011Y0187
Y0176
Y0165
T02
X0020099Y0041024
X003
Y0051024
X0020099
Y0061024
X003
Y0071024
X0020099
Y0081024
X003
Y0091024
X0020099
Y0101024
X003
Y0111024
X0020099
Y0121024
X003
Y0131024
X0020099
X0060099
X007
Y0121024
X0060099
Y0111024
X007
Y0101024
X0060099
Y0091024
X007
Y0081024
X0060099
Y0071024
X007
Y0061024
X0060099
Y0051024
X007
Y0041024
X0060099
X0358835Y0008024
X0368835
X0378835
X0388835
X0398835
X0408835
X0322835Y0198024
X0312835
X0302835
X0292835
X0282835
X0272835
X0262835
X0252835
X0242835
X0232835
T03
X03775Y0095
Y0105
Y0115
Y0125
M30
