G04*
G04 #@! TF.GenerationSoftware,Altium Limited,Altium Designer,21.2.0 (30)*
G04*
G04 Layer_Color=8421504*
%FSLAX25Y25*%
%MOIN*%
G70*
G04*
G04 #@! TF.SameCoordinates,50EEE562-DE44-4F6C-8D0E-6D451127BC4F*
G04*
G04*
G04 #@! TF.FilePolarity,Positive*
G04*
G01*
G75*
%ADD15R,0.03937X0.02362*%
%ADD16R,0.05315X0.05118*%
%ADD17R,0.05807X0.01772*%
%ADD18R,0.02362X0.01772*%
%ADD19R,0.01772X0.02362*%
%ADD20R,0.05118X0.05315*%
%ADD21R,0.01181X0.01378*%
%ADD22R,0.01378X0.01181*%
%ADD23R,0.03937X0.06693*%
%ADD24R,0.02165X0.00984*%
%ADD25R,0.06890X0.06299*%
D15*
X230000Y146000D02*
D03*
X239449Y149760D02*
D03*
Y142240D02*
D03*
D16*
X166000Y158972D02*
D03*
Y168028D02*
D03*
X258500Y151472D02*
D03*
Y160528D02*
D03*
X250500Y151472D02*
D03*
Y160528D02*
D03*
X133000Y119055D02*
D03*
Y110000D02*
D03*
X122500Y119055D02*
D03*
Y110000D02*
D03*
X167000Y96528D02*
D03*
Y87472D02*
D03*
X218000Y160528D02*
D03*
Y151472D02*
D03*
X266500Y160500D02*
D03*
Y151445D02*
D03*
D17*
X147134Y170559D02*
D03*
Y168000D02*
D03*
Y165441D02*
D03*
Y162882D02*
D03*
Y160323D02*
D03*
Y157764D02*
D03*
Y155205D02*
D03*
Y152646D02*
D03*
X124000D02*
D03*
Y155205D02*
D03*
Y157764D02*
D03*
Y160323D02*
D03*
Y162882D02*
D03*
Y165441D02*
D03*
Y168000D02*
D03*
Y170559D02*
D03*
D18*
X121307Y95839D02*
D03*
Y93279D02*
D03*
Y90720D02*
D03*
Y88161D02*
D03*
X134693D02*
D03*
Y90720D02*
D03*
Y93279D02*
D03*
Y95839D02*
D03*
D19*
X124161Y85307D02*
D03*
X126720D02*
D03*
X129279D02*
D03*
X131839D02*
D03*
Y98693D02*
D03*
X129279D02*
D03*
X126720D02*
D03*
X124161D02*
D03*
D20*
X155528Y97000D02*
D03*
X146472D02*
D03*
X306528Y90000D02*
D03*
X297472D02*
D03*
X262528D02*
D03*
X253472D02*
D03*
X155528Y87000D02*
D03*
X146472D02*
D03*
D21*
X279016Y93051D02*
D03*
X280984D02*
D03*
Y86949D02*
D03*
X279016D02*
D03*
D22*
X283051Y92953D02*
D03*
Y90984D02*
D03*
Y89016D02*
D03*
Y87047D02*
D03*
X276949D02*
D03*
Y89016D02*
D03*
Y90984D02*
D03*
Y92953D02*
D03*
D23*
X234500Y163000D02*
D03*
D24*
X239126Y165953D02*
D03*
Y163984D02*
D03*
Y162016D02*
D03*
Y160047D02*
D03*
X229874D02*
D03*
Y162016D02*
D03*
Y163984D02*
D03*
Y165953D02*
D03*
D25*
X276000Y149700D02*
D03*
X276000Y162299D02*
D03*
M02*
