<?xml version="1.0" encoding="utf-8"?>
<!-- Generator: Adobe Illustrator 24.1.0, SVG Export Plug-In . SVG Version: 6.00 Build 0)  -->
<svg version="1.1" id="Laag_1" xmlns="http://www.w3.org/2000/svg" xmlns:xlink="http://www.w3.org/1999/xlink" x="0px" y="0px"
	 viewBox="0 0 78 25" style="enable-background:new 0 0 78 25;" xml:space="preserve">
<style type="text/css">
	.st0{opacity:0.6;}
	.st1{fill:#FFFFFF;}
</style>
<g class="st0">
	<path class="st1" d="M12.5,17.1L12.5,17.1L7.5,1H1v22h4.4V7.7h0.1c0.5,2.5,0.8,3.5,1.3,5.1L10.1,23h4.3l3.3-10.1
		c0.5-1.6,0.9-3,1.2-4.9H19v15h4.7V1h-6.6L12.5,17.1z"/>
	<path class="st1" d="M39.9,13c0-4.1-1.8-6.2-6.2-6.2c-4,0-6.4,1.4-8,2.8l2,2.7c1.5-1.1,3.2-2,5.3-2c1.6,0,2.2,0.7,2.2,1.9v0.4
		c-7,0.6-10.2,2.6-10.2,6.2c0,2.7,2.1,4.3,4.6,4.3c2.4,0,4.1-0.9,5.6-2.6c0,0.9,0.2,1.7,0.4,2.3h4.8c-0.3-0.8-0.5-2-0.5-3.9V13z
		 M35.2,18.2c-0.8,0.8-2,1.4-3.7,1.4c-1.1,0-1.8-0.5-1.8-1.5c0-1.5,1.6-2.4,5.4-2.8L35.2,18.2L35.2,18.2z"/>
	<polygon class="st1" points="56.8,7.5 51.6,7.5 46.7,13.4 46.7,1.3 41.9,1.3 41.9,23.3 46.7,23.3 46.7,19 48.6,16.8 52.2,23.3 
		57.1,23.3 51.6,13.4 	"/>
	<path class="st1" d="M63.6,6.9c-3.3,0-8.1,2.1-8.1,8.2s4,8.2,8.2,8.2c2.8,0,5.1-0.8,7-2.4l-1.9-2.8c-1.1,1-2.9,1.9-4.8,1.9
		c-2,0-3.5-1-3.7-3.6H71v-0.7C71,8.5,66.9,6.9,63.6,6.9z M60.4,13.6c0.4-2.3,1.7-3.3,3.2-3.3c1.8,0,2.8,1.1,3.1,3.3H60.4z"/>
	<rect x="71.8" y="7.4" class="st1" width="5.5" height="4.6"/>
	<rect x="71.8" y="18.7" class="st1" width="5.5" height="4.6"/>
</g>
</svg>
