<?xml version="1.0" encoding="utf-8"?>
<!-- Generator: Adobe Illustrator 24.0.3, SVG Export Plug-In . SVG Version: 6.00 Build 0)  -->
<svg version="1.1" id="Laag_1" xmlns="http://www.w3.org/2000/svg" xmlns:xlink="http://www.w3.org/1999/xlink" x="0px" y="0px"
	 viewBox="0 0 25 25" style="enable-background:new 0 0 25 25;" xml:space="preserve">
<style type="text/css">
	.st0{fill-rule:evenodd;clip-rule:evenodd;fill:#5388C6;}
	.st1{fill-rule:evenodd;clip-rule:evenodd;fill:#FFFFFF;}
</style>
<circle class="st0" cx="12.5" cy="12.5" r="12.5"/>
<path class="st1" d="M16.4,15.2c0.43-0.04,0.78-0.36,0.88-0.78l1.69-5.52c0.08-0.23,0.04-0.48-0.1-0.68
	C18.69,8,18.43,7.88,18.15,7.9H7.27L6.85,6.81c-0.01-0.03-0.02-0.07-0.04-0.1c0-0.03,0-0.05,0-0.08C6.81,6.28,6.53,6,6.18,6H4.62
	C4.28,6,4,6.28,4,6.63c0,0.35,0.28,0.63,0.62,0.63H5.8l0.49,1.27C6.26,8.68,6.27,8.83,6.31,8.97l1.68,5.41
	c0.03,0.08,0.06,0.16,0.09,0.23l-0.87,2.39c-0.01,0.04-0.02,0.09-0.03,0.13c-0.05,0.09-0.07,0.18-0.07,0.28
	c0,0.35,0.28,0.63,0.62,0.63H8.7c-0.24,0.31-0.37,0.7-0.36,1.09C8.28,20.11,9,20.94,9.94,21c0.95,0.06,1.76-0.68,1.82-1.64
	c0-0.07,0-0.14,0-0.21c0-0.4-0.12-0.78-0.36-1.09h2.18c-0.24,0.31-0.37,0.7-0.36,1.09c-0.06,0.96,0.66,1.79,1.61,1.85
	c0.95,0.06,1.76-0.68,1.82-1.64c0-0.07,0-0.14,0-0.21c0-0.4-0.13-0.78-0.36-1.09h0.5c0.34,0,0.62-0.28,0.62-0.63
	c0-0.35-0.28-0.63-0.62-0.63H8.51l0.57-1.59H16.4z M10.05,19.77c-0.34,0.02-0.64-0.24-0.67-0.59c-0.02-0.35,0.23-0.65,0.58-0.68
	c0.34-0.02,0.64,0.24,0.67,0.59c0,0.01,0,0.03,0,0.04c0.02,0.33-0.24,0.62-0.57,0.63C10.06,19.77,10.05,19.77,10.05,19.77z
	 M14.93,19.77c-0.34,0.02-0.64-0.24-0.67-0.59c-0.02-0.35,0.23-0.65,0.58-0.68c0.34-0.02,0.64,0.24,0.67,0.59c0,0.01,0,0.03,0,0.04
	c0.02,0.33-0.24,0.62-0.57,0.63C14.94,19.77,14.93,19.77,14.93,19.77z M7.68,9.17h9.89l-1.46,4.76H9.16L7.68,9.17z"/>
</svg>
