<?xml version="1.0" encoding="utf-8"?>
<!-- Generator: Adobe Illustrator 24.1.0, SVG Export Plug-In . SVG Version: 6.00 Build 0)  -->
<svg version="1.1" id="Laag_1" xmlns="http://www.w3.org/2000/svg" xmlns:xlink="http://www.w3.org/1999/xlink" x="0px" y="0px"
	 viewBox="0 0 25 25" style="enable-background:new 0 0 25 25;" xml:space="preserve">
<style type="text/css">
	.st0{opacity:0.6;fill-rule:evenodd;clip-rule:evenodd;fill:#FFFFFF;enable-background:new    ;}
</style>
<g id="twitter_1_">
	<path class="st0" d="M21.5,5.3c0.9-0.6,1.6-1.5,2-2.7c-0.9,0.6-1.8,0.9-2.9,1.2c-0.8-0.9-2-1.5-3.3-1.5c-2.5,0-4.5,2.1-4.5,4.8
		c0,0.4,0,0.7,0.1,1.1c-3.7-0.2-7-2.1-9.3-5C3.3,3.9,3,4.7,3,5.6c0,1.7,0.8,3.1,2,4C4.3,9.5,3.6,9.3,3,9l0,0c0,2.3,1.6,4.3,3.6,4.7
		c-0.4,0.1-0.8,0.2-1.2,0.2c-0.3,0-0.6,0-0.8-0.1c0.6,1.9,2.2,3.3,4.2,3.3c-1.5,1.3-3.5,2.1-5.6,2.1c-0.4,0-0.7,0-1.1-0.1
		c2,1.4,4.4,2.2,6.9,2.2c8.3,0,12.8-7.3,12.8-13.6c0-0.2,0-0.4,0-0.6c0.9-0.7,1.6-1.5,2.3-2.5C23.3,4.9,22.4,5.2,21.5,5.3z"/>
</g>
</svg>
